<svg t="1647676172913" class="icon" viewBox="0 0 1024 1024" version="1.1" xmlns="http://www.w3.org/2000/svg" p-id="2359" width="512" height="512"><path d="M818.1 872.1c-15.4 0-30.7-5.9-42.4-17.6l-613-612.9c-23.4-23.4-23.4-61.4 0-84.9 23.4-23.4 61.4-23.4 84.9 0l612.9 612.9c23.4 23.4 23.4 61.4 0 84.9a59.914 59.914 0 0 1-42.4 17.6z" fill="" p-id="2360"></path><path d="M205.1 872.1c-15.4 0-30.7-5.9-42.4-17.6-23.4-23.4-23.4-61.4 0-84.9l612.9-612.9c23.4-23.4 61.4-23.4 84.9 0 23.4 23.4 23.4 61.4 0 84.9L247.6 854.5c-11.7 11.7-27.1 17.6-42.5 17.6z" fill="" p-id="2361"></path><path d="M818.1 872.1c-15.4 0-30.7-5.9-42.4-17.6l-613-612.9c-23.4-23.4-23.4-61.4 0-84.9 23.4-23.4 61.4-23.4 84.9 0l612.9 612.9c23.4 23.4 23.4 61.4 0 84.9a59.914 59.914 0 0 1-42.4 17.6z" fill="" p-id="2362"></path><path d="M205.1 872.1c-15.4 0-30.7-5.9-42.4-17.6-23.4-23.4-23.4-61.4 0-84.9l612.9-612.9c23.4-23.4 61.4-23.4 84.9 0 23.4 23.4 23.4 61.4 0 84.9L247.6 854.5c-11.7 11.7-27.1 17.6-42.5 17.6z" fill="" p-id="2363"></path><path d="M818.1 872.1c-15.4 0-30.7-5.9-42.4-17.6l-613-612.9c-23.4-23.4-23.4-61.4 0-84.9 23.4-23.4 61.4-23.4 84.9 0l612.9 612.9c23.4 23.4 23.4 61.4 0 84.9a59.914 59.914 0 0 1-42.4 17.6z" fill="" p-id="2364"></path><path d="M205.1 872.1c-15.4 0-30.7-5.9-42.4-17.6-23.4-23.4-23.4-61.4 0-84.9l612.9-612.9c23.4-23.4 61.4-23.4 84.9 0 23.4 23.4 23.4 61.4 0 84.9L247.6 854.5c-11.7 11.7-27.1 17.6-42.5 17.6z" fill="" p-id="2365"></path><path d="M818.1 872.1c-15.4 0-30.7-5.9-42.4-17.6l-613-612.9c-23.4-23.4-23.4-61.4 0-84.9 23.4-23.4 61.4-23.4 84.9 0l612.9 612.9c23.4 23.4 23.4 61.4 0 84.9a59.914 59.914 0 0 1-42.4 17.6z" fill="" p-id="2366"></path><path d="M205.1 872.1c-15.4 0-30.7-5.9-42.4-17.6-23.4-23.4-23.4-61.4 0-84.9l612.9-612.9c23.4-23.4 61.4-23.4 84.9 0 23.4 23.4 23.4 61.4 0 84.9L247.6 854.5c-11.7 11.7-27.1 17.6-42.5 17.6z" fill="" p-id="2367" data-spm-anchor-id="a313x.7781069.0.i0" class="selected"></path></svg>
